<svg xmlns="http://www.w3.org/2000/svg" version="1.1" xmlns:bx="https://boxy-svg.com" viewBox="0 0 130 150"><defs><bx:export><bx:file format="svg"/></bx:export></defs><g><title>Layer 1</title><g stroke="null" id="svg_15"><polygon stroke="null" id="svg_16" points="32.72029823064804,134.61471557617188 21.657029569149017,136.42559814453125 23.367293775081635,148.13973999023438 34.430587232112885,146.34300231933594 " style=""/><polygon stroke="null" id="svg_17" points="72.67096275091171,121.3302001953125 121.51975578069687,113.36516571044922 119.80952781438828,101.65106201171875 70.97405570745468,109.60193634033203 " style=""/><polygon stroke="null" id="svg_18" points="53.6443971991539,112.43143463134766 55.34128898382187,124.14554595947266 66.41782706975937,122.34881591796875 64.70759147405624,110.62055969238281 " style=""/><polygon stroke="null" id="svg_19" points="51.76042503118515,143.5135040283203 50.050155103206635,131.79931640625 38.98684638738632,133.59605407714844 40.683761060237885,145.3243865966797 " style=""/><polygon stroke="null" id="svg_20" points="20.695004880428314,129.79039001464844 31.7582945227623,127.99365234375 30.0613951086998,116.26539611816406 18.998099744319916,118.07628631591797 " style=""/><polygon stroke="null" id="svg_21" points="122.48176902532578,120.00032806396484 73.63299125432968,127.95121765136719 75.3432497382164,139.67953491210938 124.17866843938828,131.7144317626953 " style=""/><polygon stroke="null" id="svg_22" points="56.31666511297226,130.78070068359375 58.013560712337494,142.49488830566406 69.07675498723984,140.69815063476562 67.3798479437828,128.96983337402344 " style=""/><polygon stroke="null" id="svg_23" points="38.02480262517929,126.97503662109375 49.08811515569687,125.16415405273438 47.39120811223984,113.45005798339844 36.31453651189804,115.24678039550781 " style=""/><polygon stroke="null" id="svg_24" points="18.036075055599213,111.45526885986328 22.69921439886093,110.69129943847656 9.083947598934174,16.92190170288086 4.407481133937836,17.68586540222168 " style=""/><polygon stroke="null" id="svg_25" points="24.449567258358,110.4083480834961 29.12609428167343,109.6443862915039 14.508671224117279,8.971015930175781 9.832182347774506,9.734980583190918 " style=""/><polygon stroke="null" id="svg_26" points="35.432689130306244,108.61161804199219 40.09584754705429,107.84766387939453 24.59656661748886,1.1191737651824951 19.92005294561386,1.8831367492675781 " style=""/><polygon stroke="null" id="svg_27" points="41.84619849920273,107.56471252441406 46.52271980047226,106.80075073242188 32.38626807928085,9.49447250366211 27.70976012945175,10.25843620300293 " style=""/><polygon stroke="null" id="svg_28" points="52.6823610663414,105.81041717529297 57.35885566473007,105.04645538330078 44.79908698797226,18.605451583862305 40.122569501399994,19.355268478393555 " style=""/><polygon stroke="null" id="svg_29" points="59.10919517278671,104.76350402832031 63.78566688299179,103.99954223632812 50.74494880437851,14.24802303314209 46.068438947200775,14.997841835021973 " style=""/></g></g></svg>
