<svg role="img" viewBox="0 0 48 29" xmlns="http://www.w3.org/2000/svg"><title>Traefik</title><path fill="white" d="M47.51073992 25.5400222c-4.09321395 2.0344941-8.03685784 3.05173973-11.83094223 3.05174067-6.16781944-9.4e-7-10.47592278-1.79068946-12.92432162-5.37207123-3.7754556 3.58138177-7.94338183 5.37207029-12.50379165 5.37207123-2.74747863-9.4e-7-4.98096372-.63893244-6.70046212-1.91679543-1.70081785-1.29467479-2.5512243-3.0853633-2.55122205-5.37207124-.00000224-1.7990892.50463458-3.32075397 1.51391192-4.56499908 1.00926986-1.26103697 2.53252546-2.24465522 4.56977134-2.9508557 2.05591936-.70617296 4.6912448-1.1601501 7.90598457-1.36193332l5.99957739-.37831508v-.83229317c-.00002214-2.65659132-.49531427-4.4136519-1.48587637-5.27118665-.99060428-.85749084-2.75683383-1.28624726-5.29869287-1.2862705-1.3083331.00002324-2.93438447.26063995-4.87816024.78185069-1.92510651.50444182-3.55115852 1.09293102-4.87816078 1.7654693L3.01854947 3.84997102c1.56997695-.84067478 3.48572784-1.52164078 5.74725837-2.04290018 2.28020053-.5380212 4.36416417-.80704475 6.25189566-.80707168 5.008971.00002693 8.10220777 1.27788917 9.27971979 3.8335905C26.59629846 2.27788831 29.93250854 1.00002607 34.306063.99999914c3.75670558.00002693 6.7938715 1.1685983 9.11150725 3.50571762 2.3362371 2.3203522 3.50437833 5.45615912 3.50442578 9.40742968v1.18538629H25.97954762c.28032682 6.47339383 3.49504971 9.71008411 9.64418028 9.71008127 3.49504023.00000284 6.98077186-.94998708 10.4572065-2.84997168l1.42980552 3.58137988m-5.74725857-13.84632326c-.22432556-2.15217283-1.03735178-3.85038436-2.43908076-5.09464-1.40180911-1.26102692-3.09327683-1.891551-5.07440842-1.89157424-4.46700518.00002324-7.16774708 2.32875895-8.10223201 6.98621424h15.61572119m-20.15745763 8.625579c-.54203962-1.53006451-.81304836-3.18624163-.81302622-4.96853516-3.85021427.23540775-6.42946898.42876847-7.73777256.58008217-1.28964106.13452372-2.5231982.41195478-3.70067353.83229317-1.17749652.4203602-2.07462859.98362868-2.69139904 1.68980639-.59809602.70619668-.89713997 1.58892996-.89713301 2.64820364-.00000696 1.1769856.48593956 2.09334721 1.45784116 2.74908765.97188461.6389353 2.29889257.95840104 3.98102755.9583982 1.7568714.00000284 3.61655166-.42034598 5.57904604-1.2610493 1.98114846-.8406948 3.58851096-1.91678976 4.82208961-3.22828676"/></svg>
