<svg height="150" viewBox="0 0 209 188.933" version="1.1" xmlns="http://www.w3.org/2000/svg" xmlns:bx="https://boxy-svg.com" preserveAspectRatio="none"><defs><bx:export><bx:file format="svg"/></bx:export></defs><title>Traefik</title><g stroke="none" stroke-width="1" fill="none" fill-rule="evenodd"><path d="M 104.758 0.969 C 114.113 0.969 122.429 7.573 122.429 15.708 C 122.429 23.842 114.511 30.446 104.758 30.446 C 103.642 30.446 102.185 30.264 100.389 29.898 C 98.992 29.614 97.541 29.846 96.303 30.551 L 32.943 66.614 C 31.529 67.419 31.035 69.218 31.839 70.634 C 32.103 71.1 32.491 71.485 32.957 71.747 L 101.64 110.334 C 103.423 111.336 105.598 111.341 107.386 110.346 L 176.442 71.933 C 177.863 71.142 178.375 69.347 177.585 67.925 C 177.322 67.451 176.934 67.06 176.464 66.793 L 154.919 54.553 C 153.133 53.539 150.949 53.528 149.154 54.525 L 126.408 67.15 C 125.834 67.468 125.456 68.045 125.387 68.689 L 125.374 68.906 C 125.374 77.04 117.456 83.644 107.703 83.644 C 97.95 83.644 90.032 77.04 90.032 68.906 C 90.032 60.771 97.95 54.167 107.703 54.167 C 108.066 54.167 108.481 54.186 108.951 54.226 L 109.697 54.299 L 110.521 54.403 C 111.781 54.574 113.061 54.333 114.172 53.716 L 147.809 35.048 C 150.385 33.617 153.495 33.571 156.105 34.9 L 156.457 35.09 L 203.429 61.775 C 209.318 65.12 209.386 73.535 203.677 77.011 L 203.36 77.195 L 171.938 94.673 C 170.516 95.464 170.004 97.258 170.795 98.681 C 171.072 99.183 171.491 99.592 171.998 99.858 L 203.121 116.241 C 209.299 119.492 209.448 128.293 203.383 131.751 L 108.863 185.656 C 106.15 187.204 102.822 187.204 100.109 185.654 L 6.128 131.971 C 0.057 128.504 0.223 119.686 6.422 116.451 L 37.884 100.025 C 39.326 99.272 39.885 97.491 39.133 96.048 C 38.869 95.541 38.463 95.122 37.963 94.841 L 6.123 76.954 C 0.235 73.645 0.107 65.263 5.767 61.742 L 6.082 61.555 L 84.28 17.047 C 85.519 16.342 86.456 15.215 86.927 13.877 L 87.026 13.563 C 89.771 5.383 96.018 0.969 104.758 0.969 Z M 148.393 109.542 L 109.776 131.763 L 109.421 131.956 C 106.796 133.311 103.657 133.26 101.068 131.799 L 62.574 110.081 C 60.843 109.105 58.737 109.071 56.976 109.993 L 34.787 121.604 C 33.348 122.357 32.79 124.138 33.541 125.582 C 33.801 126.084 34.2 126.499 34.689 126.78 L 102.482 165.598 C 104.287 166.631 106.5 166.632 108.305 165.6 L 176.683 126.505 C 178.093 125.699 178.585 123.899 177.782 122.484 C 177.504 121.995 177.093 121.596 176.597 121.334 L 154.052 109.438 C 152.272 108.499 150.137 108.538 148.393 109.542 Z" id="Shape" fill-rule="nonzero" style="fill: rgb(0, 0, 0);"/></g></svg>
